<?xml version="1.0" encoding="UTF-8" standalone="no"?>
<svg width="621px" height="197px" viewBox="0 0 621 197" version="1.1" xmlns="http://www.w3.org/2000/svg" xmlns:xlink="http://www.w3.org/1999/xlink" xmlns:sketch="http://www.bohemiancoding.com/sketch/ns">
    <title>Ja</title>
    <description>Created with Sketch (http://www.bohemiancoding.com/sketch)</description>
    <defs></defs>
    <g id="Page-1" stroke="none" stroke-width="1" fill="none" fill-rule="evenodd" sketch:type="MSPage">
        <g id="Artboard-2" sketch:type="MSArtboardGroup">
            <path d="M255.352,0 L188.536,0 L188.536,100.224 C188.536,140.832 187.384,141.696 175,141.696 L175,196.704 C224.824,196.704 255.352,193.248 255.352,141.984 C255.352,141.984 255.352,193.248 255.352,141.984 L255.352,0 Z M258.52,192.96 L324.184,192.96 L328.792,170.784 L372.856,170.784 L378.328,192.96 L445.72,192.96 L402.232,0 L301.144,0 L258.52,192.96 Z M348.376,52.416 L355.576,52.416 L365.944,119.808 L337.432,119.808 L348.376,52.416 Z M348.376,52.416" id="JA" fill="#333333" sketch:type="MSShapeGroup"></path>
            <path d="M102.255261,65.372354 C91.9277308,44.2411085 60.5534224,45.8748336 52.5690443,64.2857559 C44.5846663,45.8748336 13.2103579,44.2411085 2.88282723,65.3720989 C-9.29151194,90.2819395 18.9628461,114.010252 52.5690443,148 C86.1752426,114.010252 114.429601,90.2819395 102.255261,65.372354 C102.255261,65.372354 114.429601,90.2819395 102.255261,65.372354 L102.255261,65.372354 L102.255261,65.372354 Z M102.255261,65.372354" id="favorite-2-icon" fill="#E3391E" sketch:type="MSShapeGroup"></path>
            <path d="M618.255261,65.372354 C607.927731,44.2411085 576.553422,45.8748336 568.569044,64.2857559 C560.584666,45.8748336 529.210358,44.2411085 518.882827,65.3720989 C506.708488,90.2819395 534.962846,114.010252 568.569044,148 C602.175243,114.010252 630.429601,90.2819395 618.255261,65.372354 C618.255261,65.372354 630.429601,90.2819395 618.255261,65.372354 L618.255261,65.372354 L618.255261,65.372354 Z M618.255261,65.372354" id="favorite-2-icon" fill="#E3391E" sketch:type="MSShapeGroup"></path>
        </g>
    </g>
</svg>