<?xml version="1.0" encoding="UTF-8" standalone="no"?>
<svg width="621px" height="389px" viewBox="0 0 621 389" version="1.1" xmlns="http://www.w3.org/2000/svg" xmlns:xlink="http://www.w3.org/1999/xlink" xmlns:sketch="http://www.bohemiancoding.com/sketch/ns">
    <title>mail</title>
    <description>Created with Sketch (http://www.bohemiancoding.com/sketch)</description>
    <defs></defs>
    <g id="Page-1" stroke="none" stroke-width="1" fill="none" fill-rule="evenodd" sketch:type="MSPage">
        <g id="Artboard-3" sketch:type="MSArtboardGroup" fill="#FFFFFF">
            <path d="M-0.208,212.68745 L35.6957139,212.68745 L35.6957139,159.296151 L37.3980452,159.296151 L46.2192163,211.604148 L76.2421495,211.604148 L85.218078,159.296151 L86.9204092,159.296151 L86.9204092,212.68745 L122.824123,212.68745 L122.824123,109 L67.8852506,109 L61.2306829,148.617891 L53.1832987,109 L-0.208,109 L-0.208,212.68745 Z M132.109566,212.68745 L168.01328,212.68745 L168.01328,109 L132.109566,109 L132.109566,212.68745 Z M222.023609,185.914422 L227.904389,212.68745 L264.427133,212.68745 L254.213145,177.402765 C261.6415,171.367227 265.665192,161.772269 265.665192,147.225075 C265.665192,116.11884 251.117998,109 220.940307,109 L177.298724,109 L177.298724,212.68745 L213.202438,212.68745 L213.202438,185.914422 L221.868851,185.914422 L222.023609,185.914422 Z M229.451963,147.225075 C229.451963,153.724885 226.975845,157.59382 221.868851,157.59382 L213.04768,157.59382 L213.04768,137.320602 L220.940307,137.320602 C226.821088,137.320602 229.451963,140.725264 229.451963,147.225075 C229.451963,147.225075 229.451963,140.725264 229.451963,147.225075 Z M306.05687,212.68745 L383.745079,212.68745 L383.745079,184.057333 L341.960584,184.057333 L341.960584,174.77189 L374.459635,174.77189 L374.459635,146.451288 L341.960584,146.451288 L341.960584,137.630117 L383.745079,137.630117 L383.745079,109 L306.05687,109 L306.05687,212.68745 Z M391.018676,212.68745 L426.92239,212.68745 L426.92239,109 L391.018676,109 L391.018676,212.68745 Z M436.207833,212.68745 L472.111547,212.68745 L472.111547,170.438683 L474.432908,170.438683 L497.956031,212.68745 L533.395473,212.68745 L533.395473,109 L497.491759,109 L497.491759,148.308376 L495.325155,148.308376 L471.492518,109 L436.207833,109 L436.207833,212.68745 Z M542.680916,212.68745 L620.369124,212.68745 L620.369124,184.057333 L578.58463,184.057333 L578.58463,174.77189 L611.083681,174.77189 L611.083681,146.451288 L578.58463,146.451288 L578.58463,137.630117 L620.369124,137.630117 L620.369124,109 L542.680916,109 L542.680916,212.68745 Z M542.680916,212.68745" id="MIR-EINE" sketch:type="MSShapeGroup"></path>
            <path d="M76.0698548,3.76757532 C76.0698548,3.76757532 53.3304189,5.68434189e-14 37.9309274,5.68434189e-14 C14.0401276,5.68434189e-14 -0.208,6.3758967 -0.208,34.0530846 C-0.208,54.3400287 7.41978548,61.8751793 34.4768359,66.0774749 C44.5512695,67.6714491 45.5587129,67.9612626 45.5587129,69.989957 C45.5587129,72.3084648 43.8316671,73.3228121 38.0748479,73.3228121 C23.9706408,73.3228121 1.95080721,70.1348637 1.95080721,70.1348637 L0.511602404,95.7833572 C0.511602404,95.7833572 20.5165492,101 41.097178,101 C65.7075802,101 79.2361054,92.4505022 79.2361054,67.6714491 C79.2361054,44.9210904 71.1765585,41.2984218 43.6877466,35.0674319 C34.4768359,33.0387374 33.4693925,32.3142037 33.4693925,30.2855093 C33.4693925,28.2568149 34.9085973,27.6771879 40.809337,27.6771879 C54.9135442,27.6771879 75.2063319,29.8507891 75.2063319,29.8507891 L76.0698548,3.76757532 Z M154.938278,71.5839311 C154.938278,71.5839311 142.705037,72.4533716 132.486683,72.4533716 C119.821681,72.4533716 116.943271,69.7001435 116.943271,50.1377331 C116.943271,31.010043 119.677761,28.4017217 132.486683,28.4017217 C142.705037,28.4017217 154.506517,29.8507891 154.506517,29.8507891 L155.37004,3.91248207 C155.37004,3.91248207 136.660377,5.68434189e-14 125.866341,5.68434189e-14 C92.4767896,5.68434189e-14 83.2658789,11.8823529 83.2658789,50.1377331 C83.2658789,89.5523673 92.7646306,100.855093 124.427136,100.855093 C140.114469,100.855093 155.37004,97.0875179 155.37004,97.0875179 L154.938278,71.5839311 Z M213.945675,98.9713056 L247.335227,98.9713056 L247.335227,1.88378766 L213.945675,1.88378766 L213.945675,37.6757532 L195.092092,37.6757532 L195.092092,1.88378766 L161.702541,1.88378766 L161.702541,98.9713056 L195.092092,98.9713056 L195.092092,65.0631277 L213.945675,65.0631277 L213.945675,98.9713056 Z M297.563475,73.902439 L303.032453,98.9713056 L336.997687,98.9713056 L327.498935,65.9325681 C334.407118,60.2812052 338.14905,51.2969871 338.14905,37.6757532 C338.14905,8.54949785 324.620525,1.88378766 296.556031,1.88378766 L255.970456,1.88378766 L255.970456,98.9713056 L289.360007,98.9713056 L289.360007,73.902439 L297.419554,73.902439 L297.563475,73.902439 Z M304.471658,37.6757532 C304.471658,43.7618364 302.16893,47.384505 297.419554,47.384505 L289.216087,47.384505 L289.216087,28.4017217 L296.556031,28.4017217 C302.02501,28.4017217 304.471658,31.58967 304.471658,37.6757532 C304.471658,37.6757532 304.471658,31.58967 304.471658,37.6757532 Z M344.769393,98.9713056 L417.017474,98.9713056 L417.017474,72.1635581 L378.158944,72.1635581 L378.158944,63.4691535 L408.382245,63.4691535 L408.382245,36.9512195 L378.158944,36.9512195 L378.158944,28.6915352 L417.017474,28.6915352 L417.017474,1.88378766 L344.769393,1.88378766 L344.769393,98.9713056 Z M423.781736,98.9713056 L457.171288,98.9713056 L457.171288,1.88378766 L423.781736,1.88378766 L423.781736,98.9713056 Z M465.806517,1.88378766 L465.806517,98.9713056 L509.990104,98.9713056 C529.56329,98.9713056 547.121589,93.3199426 547.121589,71.4390244 C547.121589,57.2381636 543.667497,53.1807747 534.744427,49.2682927 C543.235736,43.1822095 544.67494,37.5308465 544.67494,25.938307 C544.67494,7.3902439 528.987608,1.88378766 509.414423,1.88378766 L465.806517,1.88378766 Z M506.967774,60.5710187 C513.444196,60.5710187 515.459083,62.5997131 515.459083,68.3959828 C515.459083,74.9167862 513.588117,76.5107604 506.967774,76.5107604 L499.196068,76.5107604 L499.196068,60.5710187 L506.967774,60.5710187 Z M506.536013,24.0545194 C512.004991,24.0545194 514.451639,26.0832138 514.451639,31.4447633 C514.451639,37.0961263 512.436753,39.5595409 506.679933,39.5595409 L499.196068,39.5595409 L499.196068,24.0545194 L506.536013,24.0545194 Z M548.992555,29.2711621 L568.853581,29.2711621 L568.853581,98.9713056 L602.243133,98.9713056 L602.243133,29.2711621 L620.952795,29.2711621 L620.952795,1.88378766 L548.992555,1.88378766 L548.992555,29.2711621 Z M548.992555,29.2711621" id="SCHREIBT" sketch:type="MSShapeGroup"></path>
            <path d="M7.10542736e-15,388.52 L57.3763441,388.52 L57.3763441,303.042388 L60.0967742,303.042388 L74.1935484,386.785672 L122.172043,386.785672 L136.516129,303.042388 L139.236559,303.042388 L139.236559,388.52 L196.612903,388.52 L196.612903,222.52 L108.817204,222.52 L98.1827957,285.946866 L85.3225806,222.52 L7.10542736e-15,222.52 L7.10542736e-15,388.52 Z M202.795699,388.52 L259.182796,388.52 L263.139785,369.442388 L300.978495,369.442388 L305.677419,388.52 L363.548387,388.52 L326.204301,222.52 L239.397849,222.52 L202.795699,388.52 Z M279.956989,267.612537 L286.139785,267.612537 L295.043011,325.588657 L270.55914,325.588657 L279.956989,267.612537 Z M369.483871,388.52 L426.860215,388.52 L426.860215,222.52 L369.483871,222.52 L369.483871,388.52 Z M552.989247,388.52 L552.989247,341.693134 L499.075269,341.693134 L499.075269,222.52 L441.698925,222.52 L441.698925,388.52 L552.989247,388.52 Z M562.88172,388.52 L619.268817,388.52 L619.268817,339.463284 L562.88172,339.463284 L562.88172,388.52 Z M564.612903,328.066269 L617.537634,328.066269 L621,222.52 L561.150538,222.52 L564.612903,328.066269 Z M564.612903,328.066269" id="MAIL!" sketch:type="MSShapeGroup"></path>
        </g>
    </g>
</svg>