<?xml version="1.0" encoding="UTF-8" standalone="no"?>
<svg width="621px" height="193px" viewBox="0 0 621 193" version="1.1" xmlns="http://www.w3.org/2000/svg" xmlns:xlink="http://www.w3.org/1999/xlink" xmlns:sketch="http://www.bohemiancoding.com/sketch/ns">
    <title>Nein</title>
    <description>Created with Sketch (http://www.bohemiancoding.com/sketch)</description>
    <defs></defs>
    <g id="Page-1" stroke="none" stroke-width="1" fill="none" fill-rule="evenodd" sketch:type="MSPage">
        <g id="Nein" sketch:type="MSArtboardGroup" fill="#333333">
            <path d="M1.42108547e-14,192.96 L66.816,192.96 L66.816,114.336 L71.136,114.336 L114.912,192.96 L180.864,192.96 L180.864,0 L114.048,0 L114.048,73.152 L110.016,73.152 L65.664,0 L1.42108547e-14,0 L1.42108547e-14,192.96 Z M198.144,192.96 L342.72,192.96 L342.72,139.68 L264.96,139.68 L264.96,122.4 L325.44,122.4 L325.44,69.696 L264.96,69.696 L264.96,53.28 L342.72,53.28 L342.72,0 L198.144,0 L198.144,192.96 Z M356.256,192.96 L423.072,192.96 L423.072,0 L356.256,0 L356.256,192.96 Z M440.352,192.96 L507.168,192.96 L507.168,114.336 L511.488,114.336 L555.264,192.96 L621.216,192.96 L621.216,0 L554.4,0 L554.4,73.152 L550.368,73.152 L506.016,0 L440.352,0 L440.352,192.96 Z M440.352,192.96" id="NEIN" sketch:type="MSShapeGroup"></path>
        </g>
    </g>
</svg>